<?xml version="1.0" encoding="UTF-8"?>
<svg id="Calque_1" data-name="Calque 1" xmlns="http://www.w3.org/2000/svg" viewBox="0 0 378.07 392.54">
  <defs>
    <style>
      .cls-1 {
        fill: #9f2a2b;
        fill-rule: evenodd;
      }

      .cls-2 {
        fill: #e1a03f;
      }
    </style>
  </defs>
  <g id="github">
    <ellipse id="Ellipse_17" data-name="Ellipse 17" class="cls-2" cx="189.04" cy="196.27" rx="189.04" ry="196.27"/>
    <g id="Page-1">
      <g id="Dribbble-Light-Preview">
        <g id="icons">
          <path id="github-_142_" data-name="github-[#142]" class="cls-1" d="m188.51,31.39c87.1,0,157.7,75.15,157.7,167.86,0,74.17-45.12,137.06-107.78,159.29-7.99,1.68-10.81-3.58-10.81-8.08,0-5.53.21-23.59.21-46.09,0-15.67-5.07-25.86-10.7-31.07,35.14-4.18,72.01-18.38,72.01-82.85.27-16.61-5.53-32.71-16.24-45.06,1.62-4.23,7.06-21.31-1.57-44.46,0,0-13.21-4.49-43.34,17.19-12.87-3.74-26.17-5.63-39.53-5.64-13.34.03-26.62,1.93-39.48,5.64-30.13-21.74-43.39-17.19-43.39-17.19-8.56,23.1-3.13,40.18-1.51,44.46-10.69,12.36-16.49,28.45-16.24,45.06,0,64.3,36.81,78.73,71.85,82.95-4.49,4.18-8.62,11.6-10.02,22.45-8.98,4.28-31.8,11.71-45.9-13.94,0,0-8.36-16.16-24.18-17.3,0,0-15.35-.22-1.1,10.19,0,0,10.34,5.15,17.49,24.56,0,0,9.24,29.98,53.11,19.79.1,14.04.21,27.27.21,31.23,0,4.45-2.92,9.65-10.76,8.08-62.66-22.17-107.83-85.13-107.83-159.29.1-92.66,70.71-167.81,157.81-167.81"/>
        </g>
      </g>
    </g>
  </g>
</svg>