<?xml version="1.0" encoding="UTF-8"?>
<svg id="Calque_1" data-name="Calque 1" xmlns="http://www.w3.org/2000/svg" viewBox="0 0 357.06 249.25">
  <defs>
    <style>
      .cls-1, .cls-2 {
        fill: #fff;
      }

      .cls-3, .cls-4, .cls-5 {
        fill: #733e47;
      }

      .cls-3, .cls-4, .cls-2 {
        isolation: isolate;
      }

      .cls-3, .cls-2 {
        opacity: .43;
      }

      .cls-4 {
        opacity: .71;
      }

      .cls-6 {
        stroke: #1e1e1c;
        stroke-miterlimit: 10;
        stroke-width: 4px;
      }

      .cls-6, .cls-7 {
        fill: none;
      }

      .cls-8 {
        fill: #e26d5c;
      }
    </style>
  </defs>
  <circle class="cls-1" cx="177.8" cy="124.9" r="122.36"/>
  <circle class="cls-4" cx="177.8" cy="124.9" r="122.36"/>
  <ellipse class="cls-3" cx="188.24" cy="124.63" rx="111.91" ry="118.25"/>
  <ellipse class="cls-5" cx="200.83" cy="124.9" rx="99.33" ry="111.46"/>
  <circle class="cls-7" cx="177.8" cy="124.63" r="122.63"/>
  <circle class="cls-6" cx="177.8" cy="124.63" r="122.63"/>
  <path class="cls-8" d="m300.4,105.96c-.1,0-.2-.02-.31-.03.24,1.84.44,3.71.6,5.58.07.81.13,1.63.19,2.45.1.01.19.03.29.04,15.48,2.22,24.49,4.88,24.49,7.74s-9.01,5.52-24.49,7.74c-.08.01-.17.02-.25.04-.3.04-.61.08-.92.13-26.5,3.68-71.02,6.1-121.46,6.1s-95.99-2.47-122.38-6.23c-.09-.01-.17-.02-.25-.04-.41-.06-.82-.12-1.22-.18-14.73-2.18-23.27-4.78-23.27-7.56s8.56-5.39,23.32-7.57c.05-.83.11-1.66.19-2.49.15-1.87.36-3.73.6-5.58C21.31,110.03,0,115.58,0,121.74s21.28,11.7,55.41,15.63c.41.05.82.1,1.25.14.08,0,.16.02.24.03,31.88,3.59,74.63,5.78,121.63,5.78s88.94-2.15,120.71-5.68c.31-.03.61-.07.91-.1.08,0,.16-.02.24-.03,34.87-3.94,56.66-9.55,56.66-15.77s-21.8-11.83-56.66-15.78h0Z"/>
  <path class="cls-2" d="m301.57,110.92c-.1-.01-.2-.03-.3-.04.07.85.13,1.7.19,2.56.1.01.19.03.29.04,15.55,2.32,24.6,5.1,24.6,8.09s-9.05,5.77-24.6,8.09c-.08.01-.17.02-.25.04-.3.04-.61.09-.92.13-26.63,3.85-71.36,6.38-122.04,6.38s-96.46-2.59-122.97-6.51c-.09-.01-.17-.02-.25-.04-.42-.06-.82-.12-1.22-.19-14.8-2.28-23.38-4.99-23.38-7.9s8.6-5.63,23.43-7.91c.05-.87.11-1.73.19-2.6-23.38,2.85-37.46,6.51-37.46,10.52s14.05,7.66,37.39,10.51c.41.05.82.1,1.24.14.08.01.17.02.25.03,29.65,3.52,73.66,5.75,122.79,5.75s92.24-2.19,121.88-5.64c.31-.03.61-.07.91-.11.08,0,.17-.02.25-.03,24.08-2.87,38.63-6.59,38.63-10.65s-14.54-7.79-38.63-10.66h0Z"/>
</svg>