<?xml version="1.0" encoding="UTF-8"?>
<svg id="Calque_1" data-name="Calque 1" xmlns="http://www.w3.org/2000/svg" viewBox="0 0 341.06 175.05">
  <defs>
    <style>
      .cls-1 {
        fill: #fff;
      }

      .cls-2 {
        opacity: .43;
      }

      .cls-2, .cls-3 {
        isolation: isolate;
      }

      .cls-2, .cls-3, .cls-4 {
        fill: #eac56a;
      }

      .cls-3 {
        opacity: .71;
      }

      .cls-5 {
        fill: #472d30;
        font-family: Megrim, Megrim;
        font-size: 89px;
        stroke: #472d30;
      }

      .cls-5, .cls-6 {
        stroke-miterlimit: 10;
      }

      .cls-6 {
        stroke: #1e1e1c;
        stroke-width: 4px;
      }

      .cls-6, .cls-7 {
        fill: none;
      }
    </style>
  </defs>
  <path class="cls-1" d="m338.69,170.9c0,.25,0,.49-.01.74,0,.11,0,.23-.01.34.01.3,0,.6,0,.9-.01.71-.02,1.42-.03,2.12H2.42c-.03-1.36-.05-2.73-.05-4.1C2.37,78.03,77.66,2.74,170.53,2.74c35.36,0,68.17,10.91,95.25,29.56,17.93,12.34,33.34,28.07,45.32,46.26.05.08.11.17.16.25,14.14,21.57,23.45,46.59,26.42,73.54.1.87.19,1.74.27,2.61.08.92.16,1.84.23,2.76.04.47.07.93.1,1.39.05.65.09,1.3.12,1.95.07,1.11.12,2.22.17,3.34.03.64.04,1.29.06,1.94,0,.2.01.4.01.61.01.49.02.98.03,1.48v.49c.01.33.01.66.01.99.01.33.01.65.01.99Z"/>
  <path class="cls-3" d="m338.69,170.9c0,.25,0,.49-.01.74,0,.11,0,.23-.01.34.01.3,0,.6,0,.9-.01.71-.02,1.42-.03,2.12H2.42c-.03-1.36-.05-2.73-.05-4.1C2.37,78.03,77.66,2.74,170.53,2.74c35.36,0,68.17,10.91,95.25,29.56,17.93,12.34,33.34,28.07,45.32,46.26.05.08.11.17.16.25,14.14,21.57,23.45,46.59,26.42,73.54.1.87.19,1.74.27,2.61.08.92.16,1.84.23,2.76.04.47.07.93.1,1.39.05.65.09,1.3.12,1.95.07,1.11.12,2.22.17,3.34.03.64.04,1.29.06,1.94,0,.2.01.4.01.61.01.49.02.98.03,1.48v.49c.01.33.01.66.01.99.01.33.01.65.01.99Z"/>
  <path class="cls-2" d="m338.68,169.91v1.73c0,.11,0,.23-.01.34.01.3,0,.6,0,.9-.02.71-.03,1.42-.05,2.12H31.12c-.04-1.48-.06-2.97-.06-4.47C31.06,80.78,99.92,8.02,184.87,8.02c29.68,0,57.4,8.88,80.91,24.28,42.22,27.64,70.83,76.27,72.79,132.1.03.64.04,1.29.06,1.94,0,.2.01.4.01.61.01.49.02.98.03,1.48v.49c.01.33.01.66.01.99Z"/>
  <path class="cls-4" d="m338.68,169.91v.99c0,.36,0,.72-.01,1.08.01.3,0,.6,0,.9-.01.71-.02,1.42-.03,2.12H65.7c-.02-1.36-.04-2.73-.04-4.1,0-84.59,61.12-153.17,136.51-153.17,44.48,0,84,23.88,108.93,60.83.05.08.11.17.16.25,14.09,20.98,23.48,46.14,26.42,73.54.1.87.19,1.74.27,2.61.08.92.16,1.84.23,2.76.04.47.07.93.1,1.39.05.65.09,1.3.12,1.95.11,1.95.19,3.92.24,5.89.01.65.02,1.31.03,1.97.01.33.01.66.01.99Z"/>
  <path class="cls-7" d="m2.06,175c-.04-1.49-.06-2.98-.06-4.47C2,77.45,77.45,2,170.53,2s168.53,75.45,168.53,168.53c0,1.49-.02,2.98-.06,4.47"/>
  <path class="cls-6" d="m2.06,175c-.04-1.49-.06-2.98-.06-4.47C2,77.45,77.45,2,170.53,2s168.53,75.45,168.53,168.53c0,1.49-.02,2.98-.06,4.47"/>
  <text class="cls-5" transform="translate(60.53 154.55)"><tspan x="0" y="0">Home</tspan></text>
</svg>