<?xml version="1.0" encoding="UTF-8"?>
<svg id="Calque_1" data-name="Calque 1" xmlns="http://www.w3.org/2000/svg" viewBox="0 0 387.05 352.9">
  <defs>
    <style>
      .cls-1, .cls-2 {
        fill: #fff;
      }

      .cls-3, .cls-4 {
        fill: #8ea9c4;
      }

      .cls-5 {
        stroke: #1e1e1c;
        stroke-width: 4px;
      }

      .cls-5, .cls-6 {
        fill: none;
      }

      .cls-5, .cls-4 {
        stroke-miterlimit: 10;
      }

      .cls-7, .cls-2 {
        opacity: .43;
      }

      .cls-7, .cls-2, .cls-8 {
        isolation: isolate;
      }

      .cls-7, .cls-8, .cls-9 {
        fill: #c5db95;
      }

      .cls-4 {
        font-family: Megrim, Megrim;
        font-size: 78px;
        stroke: #8ea9c4;
        stroke-width: 2px;
      }

      .cls-8 {
        opacity: .71;
      }
    </style>
  </defs>
  <circle class="cls-1" cx="262.84" cy="106.38" r="103.95"/>
  <circle class="cls-8" cx="262.84" cy="106.38" r="103.95"/>
  <ellipse class="cls-7" cx="270.01" cy="101.15" rx="95.08" ry="100.46" transform="translate(-9.63 171.43) rotate(-34.64)"/>
  <ellipse class="cls-9" cx="278.93" cy="95.26" rx="84.39" ry="94.69" transform="translate(-4.7 175.46) rotate(-34.64)"/>
  <circle class="cls-6" cx="262.71" cy="106.19" r="104.18"/>
  <circle class="cls-5" cx="262.71" cy="106.19" r="104.18"/>
  <path class="cls-3" d="m339.39,33.93c-.08.04-.15.09-.23.13,1.06,1.17,2.1,2.38,3.11,3.61.44.53.88,1.07,1.31,1.62.07-.04.15-.07.22-.11,11.89-5.92,19.47-8.42,20.85-6.42s-3.63,8.21-13.38,17.23c-.05.05-.11.1-.16.15-.19.17-.38.35-.58.53-16.74,15.37-46.69,38.56-81.95,62.93-35.26,24.36-68.29,44.63-88.54,54.75-.07.03-.13.07-.2.1-.32.16-.63.31-.94.47-11.35,5.59-18.57,7.9-19.92,5.95s3.38-7.9,12.64-16.55c-.36-.6-.72-1.21-1.07-1.83-.8-1.38-1.55-2.78-2.28-4.19-22,19.26-34.22,33.44-31.24,37.74s20.52-2.1,46.28-15.84c.31-.16.62-.33.94-.5.06-.03.12-.06.18-.1,24.01-12.89,54.95-32,87.8-54.7,32.85-22.7,61.12-44.46,81.63-62.27.2-.17.39-.34.59-.51.05-.05.1-.09.15-.14,22.46-19.59,34.99-34.04,31.98-38.39-3.01-4.35-20.95,2.26-47.22,16.34h0Z"/>
  <path class="cls-2" d="m342.59,36.83c-.07.04-.15.08-.23.12.46.56.92,1.12,1.36,1.7.07-.04.15-.07.22-.11,11.99-5.89,19.66-8.32,21.11-6.22s-3.54,8.4-13.29,17.54c-.05.05-.11.1-.16.15-.19.17-.38.36-.58.54-16.75,15.55-46.79,38.92-82.22,63.4-35.42,24.48-68.66,44.78-89.09,54.84-.07.03-.13.07-.2.1-.32.16-.63.31-.94.46-11.44,5.55-18.75,7.8-20.16,5.77s3.29-8.09,12.55-16.85c-.38-.63-.76-1.26-1.13-1.91-14.97,13.29-23.03,22.64-21.1,25.44s13.52-1.43,31.21-10.71c.31-.17.62-.32.93-.5.07-.03.13-.06.19-.1,22.42-11.86,54.26-31.56,88.59-55.29,34.34-23.73,63.41-46.07,82.46-62.8.2-.17.39-.35.59-.52.05-.05.11-.09.16-.14,15.45-13.64,23.82-23.26,21.85-26.1s-13.92,1.58-32.14,11.21h0Z"/>
  <text class="cls-4" transform="translate(1 281.72)"><tspan x="0" y="0">About</tspan></text>
</svg>