<?xml version="1.0" encoding="UTF-8"?>
<svg id="Calque_1" data-name="Calque 1" xmlns="http://www.w3.org/2000/svg" viewBox="0 0 395.07 275.36">
  <defs>
    <style>
      .cls-1, .cls-2 {
        fill: #fff;
      }

      .cls-3 {
        fill: #8ea9c4;
      }

      .cls-4 {
        stroke: #1e1e1c;
        stroke-miterlimit: 10;
        stroke-width: 4px;
      }

      .cls-4, .cls-5 {
        fill: none;
      }

      .cls-6, .cls-2 {
        opacity: .43;
      }

      .cls-6, .cls-2, .cls-7 {
        isolation: isolate;
      }

      .cls-6, .cls-7, .cls-8 {
        fill: #c5db95;
      }

      .cls-7 {
        opacity: .71;
      }
    </style>
  </defs>
  <circle class="cls-1" cx="196.73" cy="137.98" r="135.38"/>
  <circle class="cls-7" cx="196.73" cy="137.98" r="135.38"/>
  <ellipse class="cls-6" cx="208.28" cy="137.68" rx="123.83" ry="130.84"/>
  <ellipse class="cls-8" cx="222.21" cy="137.98" rx="109.9" ry="123.32"/>
  <circle class="cls-5" cx="196.73" cy="137.68" r="135.68"/>
  <circle class="cls-4" cx="196.73" cy="137.68" r="135.68"/>
  <path class="cls-3" d="m332.38,117.03c-.11-.01-.23-.02-.34-.04.27,2.04.49,4.1.66,6.17.08.9.15,1.8.21,2.71.11.02.22.03.32.05,17.12,2.46,27.09,5.4,27.09,8.57s-9.97,6.11-27.09,8.56c-.09.02-.18.03-.28.04-.33.05-.67.09-1.02.14-29.32,4.08-78.58,6.75-134.39,6.75s-106.21-2.74-135.41-6.9c-.1-.02-.19-.03-.28-.04-.46-.07-.9-.13-1.35-.19-16.3-2.41-25.75-5.29-25.75-8.37s9.47-5.96,25.8-8.38c.06-.92.12-1.84.21-2.75.17-2.07.39-4.13.66-6.18C23.58,121.53,0,127.67,0,134.49s23.54,12.94,61.31,17.29c.46.06.91.11,1.38.16.09.01.17.02.27.03,35.27,3.97,82.57,6.4,134.58,6.4s98.41-2.38,133.56-6.29c.34-.04.68-.08,1.01-.11.09-.01.18-.02.27-.03,38.58-4.36,62.69-10.57,62.69-17.45s-24.12-13.09-62.69-17.46h0Z"/>
  <path class="cls-2" d="m333.68,122.51c-.11-.02-.22-.03-.33-.04.08.94.15,1.88.21,2.83.11.02.22.03.32.05,17.2,2.57,27.22,5.64,27.22,8.96s-10.02,6.38-27.22,8.95c-.09.02-.18.03-.28.04-.33.05-.68.1-1.02.15-29.46,4.26-78.96,7.06-135.04,7.06s-106.73-2.86-136.06-7.21c-.1-.02-.19-.03-.28-.04-.46-.07-.91-.13-1.35-.21-16.37-2.52-25.87-5.53-25.87-8.75s9.52-6.23,25.92-8.76c.06-.96.12-1.92.21-2.88-25.87,3.15-41.44,7.21-41.44,11.64s15.54,8.47,41.37,11.63c.46.05.91.11,1.37.16.09.02.18.03.28.04,32.81,3.89,81.5,6.36,135.86,6.36s102.06-2.42,134.85-6.24c.34-.04.68-.08,1.01-.12.09-.01.18-.02.28-.04,26.65-3.17,42.74-7.29,42.74-11.79s-16.09-8.62-42.74-11.79h0Z"/>
</svg>