<?xml version="1.0" encoding="UTF-8"?>
<svg id="Calque_1" data-name="Calque 1" xmlns="http://www.w3.org/2000/svg" viewBox="0 0 289.35 286.24">
  <defs>
    <style>
      .cls-1 {
        fill: #fff;
      }

      .cls-2, .cls-3, .cls-4 {
        fill: #8ea9c4;
      }

      .cls-5 {
        stroke: #1e1e1c;
        stroke-miterlimit: 10;
        stroke-width: 4px;
      }

      .cls-5, .cls-6 {
        fill: none;
      }

      .cls-3 {
        opacity: .71;
      }

      .cls-3, .cls-4 {
        isolation: isolate;
      }

      .cls-7 {
        fill: #ff00e5;
      }

      .cls-4 {
        opacity: .43;
      }
    </style>
  </defs>
  <circle class="cls-1" cx="120.69" cy="165.82" r="118.43"/>
  <circle class="cls-3" cx="120.69" cy="165.82" r="118.43"/>
  <ellipse class="cls-4" cx="130.8" cy="165.55" rx="108.32" ry="114.45"/>
  <ellipse class="cls-2" cx="142.97" cy="165.82" rx="96.15" ry="107.88"/>
  <circle class="cls-6" cx="120.69" cy="165.55" r="118.69"/>
  <circle class="cls-5" cx="120.69" cy="165.55" r="118.69"/>
  <g>
    <path class="cls-7" d="m255.85,54.89c-.23,0-.45-.09-.61-.25l-20.07-20.07c-1.33-1.33-2.07-3.1-2.07-4.99s.73-3.66,2.07-4.99l.53-.53c1.33-1.33,3.1-2.07,4.99-2.07s3.66.73,4.99,2.07l20.07,20.07c.16.16.25.38.25.61s-.09.45-.25.61l-9.28,9.28c-.16.16-.38.25-.61.25Zm-15.17-31.16c-1.42,0-2.75.55-3.76,1.56l-.53.53c-1,1-1.56,2.34-1.56,3.76s.55,2.75,1.56,3.76l19.46,19.46,8.05-8.05-19.46-19.46c-1-1-2.34-1.56-3.76-1.56Z"/>
    <path class="cls-7" d="m221.24,78.25c-.22,0-.45-.09-.61-.25l-9.28-9.28c-.34-.34-.34-.89,0-1.23l24.45-24.45c.34-.34.89-.34,1.23,0l9.28,9.28c.16.16.25.38.25.61s-.09.45-.25.61l-24.45,24.45c-.17.17-.39.25-.61.25Zm-8.05-10.14l8.05,8.05,23.22-23.22-8.05-8.05-23.22,23.22Z"/>
    <path class="cls-7" d="m233.47,66.03c-.22,0-.45-.09-.61-.25l-9.28-9.28c-.34-.34-.34-.89,0-1.23s.89-.34,1.23,0l9.28,9.28c.34.34.34.89,0,1.23-.17.17-.39.25-.61.25Z"/>
    <path class="cls-7" d="m239.75,59.75c-.22,0-.45-.09-.61-.25l-9.28-9.28c-.34-.34-.34-.89,0-1.23s.89-.34,1.23,0l9.28,9.28c.34.34.34.89,0,1.23-.17.17-.39.25-.61.25Z"/>
    <path class="cls-7" d="m227.18,72.31c-.22,0-.45-.09-.61-.25l-9.28-9.28c-.34-.34-.34-.89,0-1.23s.89-.34,1.23,0l9.28,9.28c.34.34.34.89,0,1.23-.17.17-.39.25-.61.25Z"/>
    <path class="cls-7" d="m264.03,35.46c-.23,0-.45-.09-.61-.25l-9.28-9.28c-.34-.34-.34-.89,0-1.23L278.59.25c.34-.34.89-.34,1.23,0l9.28,9.28c.34.34.34.89,0,1.23l-24.45,24.45c-.16.16-.38.25-.61.25Zm-8.05-10.14l8.05,8.05,23.22-23.22-8.05-8.05-23.22,23.22Z"/>
    <path class="cls-7" d="m276.26,23.24c-.22,0-.45-.09-.61-.25l-9.28-9.28c-.34-.34-.34-.89,0-1.23s.89-.34,1.23,0l9.28,9.28c.34.34.34.89,0,1.23-.17.17-.39.25-.61.25Z"/>
    <path class="cls-7" d="m282.54,16.96c-.22,0-.45-.09-.61-.25l-9.28-9.28c-.34-.34-.34-.89,0-1.23s.89-.34,1.23,0l9.28,9.28c.34.34.34.89,0,1.23-.17.17-.39.25-.61.25Z"/>
    <path class="cls-7" d="m269.98,29.52c-.22,0-.45-.09-.61-.25l-9.28-9.28c-.34-.34-.34-.89,0-1.23s.89-.34,1.23,0l9.28,9.28c.34.34.34.89,0,1.23-.17.17-.39.26-.61.26Z"/>
    <path class="cls-7" d="m257.4,32.82c-.22,0-.45-.09-.61-.25-.34-.34-.34-.89,0-1.23l26.44-26.44c.34-.34.89-.34,1.23,0s.34.89,0,1.23l-26.44,26.44c-.17.17-.39.25-.61.25Z"/>
    <path class="cls-7" d="m216.61,73.61c-.22,0-.45-.09-.61-.25-.34-.34-.34-.89,0-1.23l26.36-26.36c.34-.34.89-.34,1.23,0s.34.89,0,1.23l-26.36,26.36c-.17.17-.39.25-.61.25Z"/>
    <path class="cls-7" d="m269.85,59.62c-.22,0-.45-.09-.61-.25l-5.31-5.31c-.34-.34-.34-.89,0-1.23s.89-.34,1.23,0l5.31,5.31c.34.34.34.89,0,1.23-.17.17-.39.25-.61.25Z"/>
    <path class="cls-7" d="m259.35,63.68s-.05,0-.07,0c-.25-.02-.49-.15-.64-.36-3.24-4.51-2.74-10.65,1.19-14.58,3.93-3.94,10.06-4.44,14.58-1.19.21.15.34.38.36.64.02.25-.07.51-.25.69l-4.78,4.78c-.34.34-.89.34-1.23,0s-.34-.89,0-1.23l4.02-4.02c-3.71-2.11-8.38-1.51-11.47,1.57-3.08,3.08-3.68,7.76-1.57,11.47l4.02-4.02c.34-.34.89-.34,1.23,0s.34.89,0,1.23l-4.78,4.78c-.16.16-.39.25-.61.25Z"/>
  </g>
</svg>