<?xml version="1.0" encoding="utf-8"?>
<!-- Generator: Adobe Illustrator 27.6.1, SVG Export Plug-In . SVG Version: 6.00 Build 0)  -->
<svg version="1.1" id="Calque_1" xmlns="http://www.w3.org/2000/svg" xmlns:xlink="http://www.w3.org/1999/xlink" x="0px" y="0px"
	 viewBox="0 0 341 341" style="enable-background:new 0 0 341 341;" xml:space="preserve">
<style type="text/css">
	.st0{fill:#FFFFFF;}
	.st1{opacity:0.71;fill:#EAC56A;enable-background:new    ;}
	.st2{opacity:0.43;fill:#EAC56A;enable-background:new    ;}
	.st3{fill:#EAC56A;}
	.st4{fill:none;}
	.st5{fill:none;stroke:#1E1E1C;stroke-width:4;stroke-miterlimit:10;}
	.st6{fill:#472D30;stroke:#472D30;stroke-miterlimit:10;}
	.st7{font-family:'Megrim';}
	.st8{font-size:89px;}
</style>
<path class="st0" d="M338.7,170.9c0,0.2,0,0.5,0,0.7c0,0.1,0,0.2,0,0.3c0,0.3,0,0.6,0,0.9c0,0.7,0,1.4,0,2.1H2.4c0-1.4,0-2.7,0-4.1
	C2.4,78,77.7,2.7,170.5,2.7c35.4,0,68.2,10.9,95.2,29.6c17.9,12.3,33.3,28.1,45.3,46.3c0.1,0.1,0.1,0.2,0.2,0.2
	c14.1,21.6,23.5,46.6,26.4,73.5c0.1,0.9,0.2,1.7,0.3,2.6c0.1,0.9,0.2,1.8,0.2,2.8c0,0.5,0.1,0.9,0.1,1.4c0,0.7,0.1,1.3,0.1,2
	c0.1,1.1,0.1,2.2,0.2,3.3c0,0.6,0,1.3,0.1,1.9c0,0.2,0,0.4,0,0.6c0,0.5,0,1,0,1.5v0.5c0,0.3,0,0.7,0,1
	C338.7,170.2,338.7,170.6,338.7,170.9z"/>
<path class="st1" d="M338.7,170.9c0,0.2,0,0.5,0,0.7c0,0.1,0,0.2,0,0.3c0,0.3,0,0.6,0,0.9c0,0.7,0,1.4,0,2.1H2.4c0-1.4,0-2.7,0-4.1
	C2.4,78,77.7,2.7,170.5,2.7c35.4,0,68.2,10.9,95.2,29.6c17.9,12.3,33.3,28.1,45.3,46.3c0.1,0.1,0.1,0.2,0.2,0.2
	c14.1,21.6,23.5,46.6,26.4,73.5c0.1,0.9,0.2,1.7,0.3,2.6c0.1,0.9,0.2,1.8,0.2,2.8c0,0.5,0.1,0.9,0.1,1.4c0,0.7,0.1,1.3,0.1,2
	c0.1,1.1,0.1,2.2,0.2,3.3c0,0.6,0,1.3,0.1,1.9c0,0.2,0,0.4,0,0.6c0,0.5,0,1,0,1.5v0.5c0,0.3,0,0.7,0,1
	C338.7,170.2,338.7,170.6,338.7,170.9z"/>
<path class="st2" d="M338.7,169.9v1.7c0,0.1,0,0.2,0,0.3c0,0.3,0,0.6,0,0.9c0,0.7,0,1.4,0,2.1H31.1c0-1.5-0.1-3-0.1-4.5
	C31.1,80.8,99.9,8,184.9,8c29.7,0,57.4,8.9,80.9,24.3c42.2,27.6,70.8,76.3,72.8,132.1c0,0.6,0,1.3,0.1,1.9c0,0.2,0,0.4,0,0.6
	c0,0.5,0,1,0,1.5v0.5C338.7,169.2,338.7,169.6,338.7,169.9z"/>
<path class="st3" d="M338.7,169.9v1c0,0.4,0,0.7,0,1.1c0,0.3,0,0.6,0,0.9c0,0.7,0,1.4,0,2.1H65.7c0-1.4,0-2.7,0-4.1
	c0-84.6,61.1-153.2,136.5-153.2c44.5,0,84,23.9,108.9,60.8c0.1,0.1,0.1,0.2,0.2,0.2c14.1,21,23.5,46.1,26.4,73.5
	c0.1,0.9,0.2,1.7,0.3,2.6c0.1,0.9,0.2,1.8,0.2,2.8c0,0.5,0.1,0.9,0.1,1.4c0,0.7,0.1,1.3,0.1,2c0.1,2,0.2,3.9,0.2,5.9
	c0,0.6,0,1.3,0,2C338.7,169.2,338.7,169.6,338.7,169.9z"/>
<path class="st4" d="M2.1,175c0-1.5-0.1-3-0.1-4.5C2,77.4,77.4,2,170.5,2s168.5,75.4,168.5,168.5c0,1.5,0,3-0.1,4.5"/>
<path class="st5" d="M2.1,175c0-1.5-0.1-3-0.1-4.5C2,77.4,77.4,2,170.5,2s168.5,75.4,168.5,168.5c0,1.5,0,3-0.1,4.5"/>
<rect x="31.1" y="77.6" class="st4" width="264.3" height="87.6"/>
<text transform="matrix(1 0 0 1 53.1895 147.2153)" class="st6 st7 st8">Home</text>
</svg>
